<svg width="40" height="28" viewBox="0 0 40 28" fill="none" xmlns="http://www.w3.org/2000/svg">
<path d="M5.07 28C3.37 28 2.05333 27.4083 1.12 26.225C0.186667 25.0417 -0.163333 23.6 0.07 21.9L2.17 6.9C2.47 4.9 3.36167 3.25 4.845 1.95C6.32833 0.65 8.07 0 10.07 0H29.87C31.87 0 33.6117 0.65 35.095 1.95C36.5783 3.25 37.47 4.9 37.77 6.9L39.87 21.9C40.1033 23.6 39.7533 25.0417 38.82 26.225C37.8867 27.4083 36.57 28 34.87 28C34.17 28 33.52 27.875 32.92 27.625C32.32 27.375 31.77 27 31.27 26.5L26.77 22H13.17L8.67 26.5C8.17 27 7.62 27.375 7.02 27.625C6.42 27.875 5.77 28 5.07 28ZM29.97 16C30.5367 16 31.0117 15.8083 31.395 15.425C31.7783 15.0417 31.97 14.5667 31.97 14C31.97 13.4333 31.7783 12.9583 31.395 12.575C31.0117 12.1917 30.5367 12 29.97 12C29.4033 12 28.9283 12.1917 28.545 12.575C28.1617 12.9583 27.97 13.4333 27.97 14C27.97 14.5667 28.1617 15.0417 28.545 15.425C28.9283 15.8083 29.4033 16 29.97 16ZM25.97 10C26.5367 10 27.0117 9.80833 27.395 9.425C27.7783 9.04167 27.97 8.56667 27.97 8C27.97 7.43333 27.7783 6.95833 27.395 6.575C27.0117 6.19167 26.5367 6 25.97 6C25.4033 6 24.9283 6.19167 24.545 6.575C24.1617 6.95833 23.97 7.43333 23.97 8C23.97 8.56667 24.1617 9.04167 24.545 9.425C24.9283 9.80833 25.4033 10 25.97 10ZM11.47 16H14.47V12.5H17.97V9.5H14.47V6H11.47V9.5H7.97V12.5H11.47V16Z" fill="#87D898"/>
</svg>
